PathFileType	4	(X/Y/Z)	Walk6.trc
DataRate	CameraRate	NumFrames	NumMarkers	Units	OrigDataRate	OrigDataStartFrame	OrigNumFrames
200.000000	200.000000	5	59	mm	200.000000	334	490
Frame#	Times		LFHD		RFHD		CLAV		RBack		RACR1		RUA1		RFA1		RWRR		RWRU		RCAR		LACR1		LUA1		LFA1		LWRU		RTH1		RTH3		LTH3		LTH2		LTH4		LLFC		LWRR		LTH1		T10		RElbow		LASI		C7		RTH2		LTB2		LToe		LBHD		LTB4		RTH4		STRN		LMMAL		RTB1		LMT1		RTB2		RBHD		LTB1		LCAL		LCAR		LElbow		LTB3		RPSI		RElbowM		LElbowM		RLFC		LMT5		LLMAL		LPSI		RTB4		RMT1		RASI		RTB3		RCAL		RMT5		RLMAL		RToe		RMMAL
			X1	Y1	Z1	X2	Y2	Z2	X3	Y3	Z3	X4	Y4	Z4	X5	Y5	Z5	X6	Y6	Z6	X7	Y7	Z7	X8	Y8	Z8	X9	Y9	Z9	X10	Y10	Z10	X11	Y11	Z11	X12	Y12	Z12	X13	Y13	Z13	X14	Y14	Z14	X15	Y15	Z15	X16	Y16	Z16	X17	Y17	Z17	X18	Y18	Z18	X19	Y19	Z19	X20	Y20	Z20	X21	Y21	Z21	X22	Y22	Z22	X23	Y23	Z23	X24	Y24	Z24	X25	Y25	Z25	X26	Y26	Z26	X27	Y27	Z27	X28	Y28	Z28	X29	Y29	Z29	X30	Y30	Z30	X31	Y31	Z31	X32	Y32	Z32	X33	Y33	Z33	X34	Y34	Z34	X35	Y35	Z35	X36	Y36	Z36	X37	Y37	Z37	X38	Y38	Z38	X39	Y39	Z39	X40	Y40	Z40	X41	Y41	Z41	X42	Y42	Z42	X43	Y43	Z43	X44	Y44	Z44	X45	Y45	Z45	X46	Y46	Z46	X47	Y47	Z47	X48	Y48	Z48	X49	Y49	Z49	X50	Y50	Z50	X51	Y51	Z51	X52	Y52	Z52	X53	Y53	Z53	X54	Y54	Z54	X55	Y55	Z55	X56	Y56	Z56	X57	Y57	Z57	X58	Y58	Z58	X59	Y59	Z59

334	1.67	58.115	1427.3	-89.815	48.822	1417.5	6.0557	38.242	1174.1	-52.07	-154.55	1131.4	58.857	-40.962	1197.3	126.56	-41.301	1057	207.48	28.165	814.83	250.8	54.125	716.1	220.15	10.547	714	277.44	61.959	663.12	276.33	-31.237	1203.6	-242.3	-3.262	1041.9	-312.76	62.453	853.91	-355.2	101.35	749.19	-364.77	-21.699	626.08	157.36	24.412	465.9	105.53	-93.187	467.43	-225.37	-29.33	553.49	-226.62	-82.962	550.92	-250.02	-89.236	365.36	-192.96	138.63	776.87	-322.44	-73.282	635.96	-266.05	-189	1057.4	-49.544	-37.055	927.87	238.19	3.2616	801.48	-215.49	-104.97	1257.3	-56.046	52.976	565.89	117.95	-200.81	212.65	-177.23	-183.22	25.489	-99.834	-64.748	1343.5	-119.45	-184.94	203.66	-117.79	-0.69587	544.3	135.56	89.901	1066.8	-49.625	-297.7	112.44	-64.326	105.64	302.97	30.736	-232.04	33.483	-75.588	83.425	207.6	73.16	-76.64	1338.4	12.753	-124.39	266.66	-124.84	-367.18	119.68	-99.576	158.88	729.78	-364.78	-29.418	922.53	-339.12	-237.86	139.68	-112.4	-225.78	836.9	20.548	-83.149	894.01	166.4	-59.944	892.82	-275.36	30.403	386.42	83.296	-274.32	31.289	-159.3	-323.63	107.57	-143.45	-243.38	844.15	-85.271	117.26	216.72	22.76	220.04	48.593	-15.077	37.909	806.83	96.935	134.56	134.83	14.928	54.317	26.102	1.0579	194.73	31.632	70.677	103.33	59.702	49.154	266.04	62.927	22.476	115.26	72.623	-32.534
335	1.675	63.941	1427.5	-88.794	54.809	1417.7	7.0913	44.293	1174.1	-50.96	-148.14	1131.4	60.431	-34.312	1197	127.9	-34.6	1056.6	208.57	34.874	814.27	251.4	60.69	715.54	220.61	17.205	713.44	277.99	68.517	662.51	276.72	-25.664	1203.6	-241.04	1.7846	1041.9	-311.6	67.357	853.95	-354.06	105.95	749.12	-363.92	-14.236	626.99	157.21	31.733	466.81	105.39	-84.65	467.21	-225.68	-21.653	553.91	-226.53	-75.225	550.85	-249.97	-80.068	365.02	-193.72	143.33	776.71	-321.61	-66.349	636.03	-265.74	-183.04	1057.7	-48.022	-30.249	927.4	239.01	8.8535	801.86	-214.74	-98.742	1257.4	-54.492	60.148	566.97	117.1	-194.26	214.42	-177.95	-183.41	25.423	-99.758	-58.83	1343.5	-118.22	-178.28	204.87	-118.62	6.7285	545.29	135.25	96.003	1066.8	-48.444	-292.83	116.05	-64.943	110.12	302.39	30.767	-231.19	33.736	-75.604	86.95	207.29	73.279	-70.517	1338.4	13.997	-116.43	266.61	-125.81	-361.84	125.55	-100.05	163.44	729.74	-364.11	-24.467	922.64	-337.96	-232.5	142.04	-113.2	-219.7	836.83	21.434	-76.388	893.61	167.24	-54.947	892.94	-274.11	36.033	386.78	83.74	-272.88	33.243	-159.29	-319.11	111.92	-143.93	-237.51	843.48	-84.485	120.61	216.02	22.718	221.05	45.553	-15.483	44.592	806.59	96.844	136.79	133.9	14.753	54.696	26.816	1.0294	195.31	29.734	70.786	104.48	59.39	49.071	267.65	58.877	21.952	116.51	71.922	-32.71
336	1.68	69.781	1427.7	-87.766	60.807	1417.9	8.1322	50.343	1174.2	-49.868	-141.72	1131.6	61.991	-27.615	1196.8	129.22	-27.809	1056.3	209.64	41.62	813.81	251.98	67.286	715.08	221.03	23.901	712.98	278.52	75.111	661.97	277.07	-20.061	1203.8	-239.8	6.7855	1041.9	-310.45	72.148	854	-352.9	110.37	749.02	-363.07	-6.7357	628.02	157.11	39.038	467.81	105.33	-75.812	467.04	-226.01	-13.777	554.44	-226.41	-67.264	550.83	-249.94	-70.557	364.76	-194.48	147.87	776.51	-320.79	-59.277	636.14	-265.42	-177.1	1058	-46.536	-23.39	927.02	239.81	14.456	802.29	-213.96	-92.493	1257.7	-52.955	67.314	568.14	116.26	-187.32	216.3	-178.7	-183.48	25.37	-99.728	-52.894	1343.5	-117	-171.2	206.17	-119.5	14.156	546.41	135.04	102.09	1066.9	-47.245	-287.49	119.74	-65.579	114.5	301.84	30.848	-230.15	34.063	-75.632	90.365	207.02	73.437	-64.38	1338.5	15.235	-108.1	266.62	-126.82	-355.97	131.55	-100.51	167.8	729.64	-363.45	-19.59	922.8	-336.76	-226.71	144.51	-114.02	-213.68	836.84	22.266	-69.595	893.3	168.07	-49.999	893.14	-272.81	41.642	387.19	84.194	-271.12	35.396	-159.29	-314.12	116.4	-144.42	-231.67	842.83	-83.753	123.82	215.35	22.709	221.9	42.771	-15.893	51.215	806.53	96.785	138.89	133.02	14.598	55.016	27.492	1.0221	195.79	28.102	70.927	105.53	59.133	49.001	269.06	55.171	21.396	117.62	71.305	-32.875
337	1.685	75.635	1427.9	-86.734	66.816	1418.1	9.1755	56.387	1174.3	-48.802	-135.3	1131.9	63.532	-20.878	1196.7	130.51	-20.931	1056.1	210.68	48.403	813.44	252.53	73.911	714.71	221.43	30.637	712.61	279.02	81.741	661.53	277.39	-14.432	1204.1	-238.58	11.747	1042	-309.3	76.828	854.06	-351.73	114.62	748.92	-362.22	0.75816	629.15	157.07	46.271	468.89	105.37	-66.697	466.91	-226.36	-5.7153	555.06	-226.25	-59.093	550.87	-249.91	-60.741	364.59	-195.23	152.26	776.27	-319.97	-52.069	636.31	-265.09	-171.19	1058.4	-45.09	-16.482	926.74	240.6	20.069	802.78	-213.14	-86.238	1258	-51.441	74.433	569.36	115.48	-180	218.28	-179.45	-183.37	25.336	-99.763	-46.945	1343.5	-115.79	-163.74	207.54	-120.4	21.537	547.61	134.92	108.16	1067.1	-46.035	-281.69	123.49	-66.231	118.77	301.32	30.974	-228.85	34.487	-75.682	93.66	206.76	73.624	-58.234	1338.5	16.464	-99.413	266.71	-127.85	-349.6	137.63	-100.97	171.97	729.5	-362.8	-14.788	923.03	-335.54	-220.51	147.06	-114.87	-207.7	836.93	23.04	-62.772	893.09	168.89	-45.098	893.42	-271.45	47.216	387.65	84.648	-269.02	37.741	-159.31	-308.67	120.99	-144.9	-225.84	842.21	-83.074	126.9	214.73	22.725	222.61	40.268	-16.302	57.776	806.66	96.766	140.85	132.19	14.453	55.287	28.116	1.0342	196.2	26.733	71.088	106.46	58.927	48.941	270.29	51.835	20.816	118.58	70.77	-33.03
338	1.69	81.503	1428.3	-85.699	72.837	1418.4	10.218	62.421	1174.5	-47.767	-128.89	1132.2	65.047	-14.112	1196.7	131.76	-13.97	1055.9	211.69	55.222	813.18	253.05	80.567	714.44	221.79	37.413	712.34	279.5	88.408	661.19	277.67	-8.7811	1204.4	-237.38	16.674	1042.2	-308.16	81.396	854.13	-350.56	118.69	748.79	-361.36	8.2033	630.37	157.11	53.378	470.02	105.51	-57.334	466.85	-226.71	2.512	555.77	-226.02	-50.728	550.98	-249.88	-50.661	364.52	-195.95	156.5	775.99	-319.16	-44.732	636.53	-264.76	-165.3	1058.9	-43.69	-9.5276	926.57	241.36	25.695	803.31	-212.31	-79.989	1258.4	-49.957	81.467	570.62	114.78	-172.33	220.36	-180.2	-183.01	25.327	-99.883	-40.985	1343.6	-114.6	-155.9	208.98	-121.31	28.825	548.88	134.92	114.2	1067.3	-44.823	-275.43	127.27	-66.89	122.9	300.81	31.138	-227.24	35.036	-75.765	96.827	206.52	73.833	-52.081	1338.6	17.677	-90.417	266.88	-128.9	-342.74	143.72	-101.41	175.95	729.29	-362.16	-10.056	923.3	-334.3	-213.9	149.67	-115.73	-201.78	837.1	23.753	-55.926	892.99	169.69	-40.241	893.78	-270.06	52.73	388.13	85.096	-266.53	40.269	-159.34	-302.76	125.64	-145.38	-220.02	841.63	-82.451	129.83	214.13	22.758	223.18	38.053	-16.706	64.274	806.98	96.79	142.68	131.41	14.31	55.514	28.679	1.0646	196.53	25.613	71.259	107.3	58.764	48.89	271.35	48.879	20.223	119.41	70.314	-33.175
